<svg xmlns="http://www.w3.org/2000/svg" width="36" height="42" viewBox="0 0 36 42">
  <path id="Flower_icon" data-name="Flower icon" d="M20,42.667a18,18,0,0,0,18-18A18,18,0,0,0,20,42.667ZM7.2,19.167a5.005,5.005,0,0,0,7.84,4.12l-.04.38a5,5,0,1,0,10,0l-.04-.38a4.929,4.929,0,0,0,2.84.88,4.988,4.988,0,0,0,2.14-9.5,4.993,4.993,0,1,0-4.98-8.62l.04-.38a5,5,0,0,0-10,0l.04.38a4.929,4.929,0,0,0-2.84-.88,4.988,4.988,0,0,0-2.14,9.5A4.982,4.982,0,0,0,7.2,19.167ZM20,9.667a5,5,0,1,1-5,5A5,5,0,0,1,20,9.667Zm-18,15a18,18,0,0,0,18,18A18,18,0,0,0,2,24.667Z" transform="translate(-2 -0.667)" fill="#ebd0ce"/>
</svg>
