<svg xmlns="http://www.w3.org/2000/svg" width="59.139" height="58.691" viewBox="0 0 59.139 58.691">
  <path id="Wave_icon" data-name="Wave icon" d="M41,10V36.364a7.294,7.294,0,0,1-7.273,7.273H20.455a7.26,7.26,0,0,1-5.182-2.164L1,26.964s2.291-2.236,2.364-2.273A2.154,2.154,0,0,1,4.8,24.164a2.221,2.221,0,0,1,1.091.291c.073.018,7.836,4.473,7.836,4.473V7.273a2.727,2.727,0,0,1,5.455,0V20H21V2.727a2.727,2.727,0,1,1,5.455,0V20h1.818V4.545a2.727,2.727,0,1,1,5.455,0V20h1.818V10A2.727,2.727,0,0,1,41,10Z" transform="matrix(0.643, 0.766, -0.766, 0.643, 32.785, -0.766)" fill="#ebd0ce"/>
</svg>
